# xmcd
# 
# Track frame offsets:
#     150
#     9215
#     17330
#     24232
#     33355
#     41270
#     49212
#     58215
#     72020
#     82495
#     96367
#     109042
#     118047
#     138787
#     151880
#     162910
#     175807
# 
# Disc length: 2493
# 
# Revision: 5
# Processed by: cddbd v1.5.2PL0 Copyright (c) Steve Scherf et al.
# Submitted via: BonkEnc v1.0
# 
DISCID=ce09bb11
DTITLE=Xuxa - Só para baixinhos 3
DYEAR=2002
DGENRE=Infantil
TTITLE0=Vamos Brincar
TTITLE1=Mosca Sai
TTITLE2=BumBum, como é bom ser Lelé
TTITLE3=Imitando os Animais
TTITLE4=Sou um Jacaré
TTITLE5=Vem dançar com o Txutxucão
TTITLE6=Papi, o Camelo
TTITLE7=Como é bom Pular
TTITLE8=Vamos no Shake
TTITLE9=O coelinho Fufu
TTITLE10=Mexa os Dedinhos
TTITLE11=Por Quê?
TTITLE12=Os três Carneirinhos
TTITLE13=O sapinho saiu para Passear
TTITLE14=Se eu Fosse
TTITLE15=Pot-Pourri: Pôneis - Cavalinhos
TTITLE16=Quantas estrelas têm no Céu?
EXTD=YEAR: 2002
EXTT0=
EXTT1=
EXTT2=
EXTT3=
EXTT4=
EXTT5=
EXTT6=
EXTT7=
EXTT8=
EXTT9=
EXTT10=
EXTT11=
EXTT12=
EXTT13=
EXTT14=
EXTT15=
EXTT16=
PLAYORDER=
